<?xml version="1.0" encoding="iso-8859-1"?>
<!-- Generator: Adobe Illustrator 21.0.2, SVG Export Plug-In . SVG Version: 6.00 Build 0)  -->
<svg version="1.1" id="Layer_1" xmlns="http://www.w3.org/2000/svg" xmlns:xlink="http://www.w3.org/1999/xlink" x="0px" y="0px"
	 viewBox="0 0 40 40" style="enable-background:new 0 0 40 40;" xml:space="preserve">
<rect x="1.5" y="5.5" style="fill:#B6DCFE;" width="31" height="21"/>
<path style="fill:#4788C7;" d="M32,6v20H2V6H32 M33,5H1v22h32V5L33,5z"/>
<path style="fill:none;stroke:#4788C7;stroke-miterlimit:10;" d="M1.444,8.803l13.37,7.149c1.364,0.729,3.006,0.729,4.37,0
	l13.37-7.149"/>
<rect x="5.5" y="9.5" style="fill:#DFF0FE;" width="31" height="21"/>
<path style="fill:#4788C7;" d="M36,10v20H6V10H36 M37,9H5v22h32V9L37,9z"/>
<path style="fill:none;stroke:#4788C7;stroke-miterlimit:10;" d="M5.444,12.803l13.37,7.149c1.364,0.729,3.006,0.729,4.37,0
	l13.37-7.149"/>
<polygon style="fill:#DFF0FE;" points="36,23.115 36,30 21,30 21,31 37,31 37,23 "/>
<polygon style="fill:#98CCFD;" points="31.5,32.5 24.5,32.5 24.5,27.5 31.5,27.5 31.5,23.113 39.248,30 31.5,36.887 "/>
<path style="fill:#4788C7;" d="M32,24.227L38.495,30L32,35.773V33v-1h-1h-6v-4h6h1v-1V24.227 M31,22v5h-7v6h7v5l9-8L31,22L31,22z"/>
<path style="fill:#4788C7;" d="M18.5,30h3c0.275,0,0.5,0.225,0.5,0.5l0,0c0,0.275-0.225,0.5-0.5,0.5h-3c-0.275,0-0.5-0.225-0.5-0.5
	l0,0C18,30.225,18.225,30,18.5,30z"/>
<path style="fill:#4788C7;" d="M36.5,20L36.5,20c0.275,0,0.5,0.225,0.5,0.5v3c0,0.275-0.225,0.5-0.5,0.5l0,0
	c-0.275,0-0.5-0.225-0.5-0.5v-3C36,20.225,36.225,20,36.5,20z"/>
</svg>
